<svg xmlns="http://www.w3.org/2000/svg" width="32" height="32"><path style="stroke:none;fill-rule:nonzero;fill:#5865f2;fill-opacity:1" d="M32 16c0 8.836-7.164 16-16 16S0 24.836 0 16 7.164 0 16 0s16 7.164 16 16zm0 0"/><path style="stroke:none;fill-rule:nonzero;fill:#fff;fill-opacity:1" d="M21.543 10.906a13.165 13.165 0 0 0-3.254-1.011c-.023-.004-.043.007-.055.027a9.1 9.1 0 0 0-.406.832 12.204 12.204 0 0 0-3.656 0 8.247 8.247 0 0 0-.414-.832c-.008-.02-.031-.027-.051-.027a13.165 13.165 0 0 0-3.254 1.011.04.04 0 0 0-.023.02c-2.075 3.097-2.64 6.12-2.364 9.105 0 .016.008.028.02.04a13.376 13.376 0 0 0 3.996 2.019.068.068 0 0 0 .059-.02c.304-.422.578-.863.816-1.328.004-.015.008-.031 0-.043a.047.047 0 0 0-.027-.027 8.936 8.936 0 0 1-1.25-.594.054.054 0 0 1-.024-.043.04.04 0 0 1 .02-.043c.082-.062.168-.129.246-.195.015-.012.035-.016.05-.008 2.622 1.195 5.458 1.195 8.044 0a.048.048 0 0 1 .05.008c.082.066.164.133.25.195.016.008.024.028.024.043a.074.074 0 0 1-.027.043c-.399.23-.817.43-1.25.594a.047.047 0 0 0-.028.027c-.008.016-.004.031 0 .043.242.461.512.906.817 1.328.015.02.035.028.058.02a13.306 13.306 0 0 0 4-2.02.048.048 0 0 0 .02-.039c.336-3.449-.559-6.449-2.367-9.105-.004-.008-.008-.016-.02-.02zm-8.195 7.309c-.79 0-1.438-.723-1.438-1.613 0-.891.637-1.614 1.438-1.614.804 0 1.449.73 1.437 1.614 0 .89-.637 1.613-1.437 1.613zm5.316 0c-.789 0-1.437-.723-1.437-1.613 0-.891.636-1.614 1.437-1.614.805 0 1.45.73 1.438 1.614 0 .89-.633 1.613-1.438 1.613zm0 0"/></svg>